<svg xmlns="http://www.w3.org/2000/svg" viewBox="0 0 24 24" width="32" height="32">
  <defs>
    <linearGradient id="familyGradient" x1="0%" y1="0%" x2="100%" y2="100%">
      <stop offset="0%" style="stop-color:#1976d2;stop-opacity:1" />
      <stop offset="100%" style="stop-color:#42a5f5;stop-opacity:1" />
    </linearGradient>
  </defs>
  
  <!-- Background circle -->
  <circle cx="12" cy="12" r="11" fill="url(#familyGradient)" stroke="#fff" stroke-width="1"/>
  
  <!-- Family icon (GroupOutlined from Material UI) -->
  <g fill="white" transform="translate(3, 4)">
    <!-- Adult 1 (left) -->
    <circle cx="4.5" cy="4" r="2"/>
    <path d="M4.5 7c-1.5 0-3 1-3 2.5V11h6V9.5C7.5 8 6 7 4.5 7z"/>
    
    <!-- Adult 2 (right) -->
    <circle cx="13.5" cy="4" r="2"/>
    <path d="M13.5 7c-1.5 0-3 1-3 2.5V11h6V9.5C16.5 8 15 7 13.5 7z"/>
    
    <!-- Child (center, smaller) -->
    <circle cx="9" cy="5.5" r="1.5"/>
    <path d="M9 8c-1.2 0-2.5 0.8-2.5 2V11h5V10C11.5 8.8 10.2 8 9 8z"/>
  </g>
</svg>